<?xml version="1.0" encoding="UTF-8"?>
<svg id="Layer_1" xmlns="http://www.w3.org/2000/svg" version="1.1" viewBox="0 0 398.7642 178.228">
  <!-- Generator: Adobe Illustrator 29.5.1, SVG Export Plug-In . SVG Version: 2.1.0 Build 141)  -->
  <defs>
    <style>
      .st0 {
        fill: #6b8f71;
      }

      .st1 {
        fill: #264653;
      }
    </style>
  </defs>
  <g>
    <path class="st1" d="M8.2681,150.9858v-75.2598h14.9458v62.0098h33.4961v13.25H8.2681Z"/>
    <path class="st1" d="M103.9858,99.2578h13.7798v51.728h-13.144v-6.2539h-.3179c-3.604,4.7354-8.7632,7.1021-15.4761,7.1021-7.208,0-13.1274-2.4546-17.7549-7.3672-4.6294-4.9106-6.9434-11.3237-6.9434-19.2388,0-7.7729,2.314-14.186,6.9434-19.2393,4.6274-5.0513,10.4409-7.5791,17.437-7.5791,6.4292,0,11.4824,2.2261,15.1577,6.6782h.3184v-5.8301ZM91.3716,139.4316c3.6738,0,6.7842-1.3066,9.3281-3.9219,2.5439-2.6133,3.8159-6.0054,3.8159-10.1758s-1.2373-7.6323-3.71-10.3882c-2.4746-2.7559-5.5835-4.1338-9.3281-4.1338-3.8159,0-6.9961,1.3247-9.54,3.9746-2.5439,2.6504-3.8159,6.1665-3.8159,10.5474,0,4.1704,1.2354,7.5625,3.71,10.1758,2.4727,2.6152,5.6528,3.9219,9.54,3.9219Z"/>
    <path class="st1" d="M161.9668,98.4097c12.5776,0,18.8677,7.2793,18.8677,21.8359v30.7402h-13.8857v-27.2422c0-4.7334-.813-8.0723-2.438-10.0166-1.626-1.9429-4.1338-2.915-7.5254-2.915-3.6045,0-6.4668,1.2188-8.5864,3.6567-2.1201,2.438-3.1802,5.9194-3.1802,10.4409v26.0762h-13.8857v-51.728h13.8857v6.6782h.2124c4.2397-5.0171,9.7515-7.5264,16.5356-7.5264Z"/>
    <path class="st1" d="M231.5015,72.9697h13.8857v78.0161h-13.25v-6.2539h-.2119c-3.7461,4.7354-9.0459,7.1021-15.8994,7.1021-7.208,0-13.1445-2.4546-17.8086-7.3672-4.6641-4.9106-6.9961-11.3237-6.9961-19.2388,0-7.7729,2.3145-14.186,6.9434-19.2393,4.627-5.0513,10.4404-7.5791,17.4365-7.5791,6.5723,0,11.7666,2.2261,15.582,6.6782h.3184v-32.1182ZM209.0298,135.5098c2.4727,2.6152,5.6523,3.9219,9.54,3.9219,3.8848,0,7.1367-1.3066,9.752-3.9219,2.6133-2.6133,3.9219-6.0054,3.9219-10.1758s-1.29-7.6323-3.8691-10.3882c-2.5801-2.7559-5.8486-4.1338-9.8047-4.1338-3.8164,0-6.9795,1.3247-9.4873,3.9746-2.5098,2.6504-3.7627,6.1665-3.7627,10.5474,0,4.1704,1.2354,7.5625,3.71,10.1758Z"/>
    <path class="st1" d="M373.6431,98.4097c12.5781,0,18.8682,7.2793,18.8682,21.8359v30.7402h-13.8857v-27.2422c0-4.7334-.8135-8.0723-2.4385-10.0166-1.626-1.9429-4.1338-2.915-7.5254-2.915-3.6045,0-6.4668,1.2188-8.5869,3.6567-2.1191,2.438-3.1797,5.9194-3.1797,10.4409v26.0762h-13.8857v-51.728h13.8857v6.6782h.2119c4.2402-5.0171,9.752-7.5264,16.5361-7.5264Z"/>
  </g>
  <g>
    <path class="st1" d="M64.1089,86.1997c-10.2002,0-18.7847-3.2002-25.75-9.6001-6.9673-6.3999-10.4502-15.2002-10.4502-26.3999,0-10.5332,3.2158-19.2656,9.6499-26.2002,6.4331-6.9326,15.2832-10.3999,26.5503-10.3999,5.1997,0,10.2827,1.1343,15.25,3.3999,4.9653,2.2671,9.3154,5.667,13.0498,10.2002l-10.2998,8.7998c-5.1343-6-11.1343-9-18-9-6.2671,0-11.4175,2.1172-15.4502,6.3501-4.0342,4.2344-6.0498,9.8501-6.0498,16.8501,0,6.5996,2,12.0342,6,16.2998,4,4.2671,9.1655,6.3999,15.5,6.3999,7.1328,0,13.1328-3,18-9l10.2998,8.8999c-7.1997,8.9346-16.6343,13.4004-28.2998,13.4004Z"/>
    <path class="st1" d="M128.9082,35.8994c12,0,18,6.7671,18,20.3003v29.2998h-13.0996v-26c0-4.333-.7847-7.3999-2.3501-9.2002-1.5674-1.7998-3.9502-2.6997-7.1499-2.6997-3.6001,0-6.4175,1.1172-8.4502,3.3501-2.0342,2.2344-3.0498,5.4844-3.0498,9.75v24.7998h-13.1001V11.8994h13.1001v30.7002h.1997c4-4.4658,9.3003-6.7002,15.8999-6.7002Z"/>
    <path class="st1" d="M202.4067,60.5996c0,2.6001-.0996,4.167-.2998,4.6997h-34.2998c.7998,2.9346,2.2998,5.2344,4.5,6.9004,2.2002,1.667,4.8652,2.5,8,2.5,4.7324.0669,8.6328-1.7656,11.7002-5.5l8.5,7.8999c-4.8672,6.1343-11.9004,9.1997-21.1006,9.1997-7.2666,0-13.2666-2.3325-17.9995-7-4.7344-4.6655-7.1001-10.7656-7.1001-18.2998,0-7.333,2.2827-13.3501,6.8501-18.0498,4.5654-4.7002,10.3501-7.0503,17.3501-7.0503,7.0654,0,12.8154,2.3174,17.25,6.9502,4.4326,4.6343,6.6494,10.5498,6.6494,17.75ZM178.9067,47.3994c-2.7344,0-5.0674.7344-7,2.2002-1.9346,1.4673-3.2666,3.5669-4,6.2998h21.5c-1.4668-5.6655-4.9668-8.5-10.5-8.5Z"/>
    <path class="st1" d="M211.5073,85.4995v-38h-5.0996v-10.7998h5.0996v-8.4004c0-5.6655,1.333-9.9653,4-12.8999,2.666-2.9326,6.4658-4.3999,11.4004-4.3999,4.8652,0,9.0654,1.2002,12.6006,3.6001l-2.6006,10.1997c-2.7998-1.3999-5.2344-2.0996-7.2998-2.0996-3.335,0-5,2.167-5,6.5v7.5h10.8994v10.7998h-10.8994v38h-13.1006Z"/>
  </g>
  <path class="st1" d="M294.6899,74.531c-21.8027,0-39.4773,17.6746-39.4773,39.4774s17.6746,39.4773,39.4773,39.4773,39.4774-17.6746,39.4774-39.4773-17.6746-39.4774-39.4774-39.4774ZM294.6899,143.7409c-16.4208,0-29.7325-13.3117-29.7325-29.7325s13.3117-29.7326,29.7325-29.7326,29.7326,13.3118,29.7326,29.7326-13.3118,29.7325-29.7326,29.7325Z"/>
  <g>
    <path class="st1" d="M373.1652,21.9645c-2.7347-2.4648-6.9498-2.246-9.4146.4887l-40.7831,48.9327c-2.4648,2.7347-3.63,4.8014-.8953,7.2662s4.444,1.9417,6.9088-.793l44.6728-46.4801c2.4648-2.7347,2.246-6.9497-.4887-9.4146ZM365.5028,30.4735c-1.6448-1.4824-1.7763-4.0176-.2939-5.6623s4.0175-1.7764,5.6623-.2939,1.7764,4.0176.2939,5.6623-4.0176,1.7764-5.6623.2939Z"/>
    <rect class="st1" x="320.0902" y="73.9838" width="4.107" height="10.1698" transform="translate(135.7883 -195.3399) rotate(42.0285)"/>
  </g>
  <path class="st1" d="M319.3375,112.1756c.0871.8388.133,1.6898.133,2.5516,0,13.4954-10.9402,24.4356-24.4356,24.4356-6.4204,0-12.2591-2.4797-16.62-6.5291,4.3267,5.0269,10.7311,8.2143,17.8839,8.2143,13.0301,0,23.593-10.563,23.593-23.593,0-1.7446-.195-3.4427-.5543-5.0794Z"/>
  <g>
    <path class="st0" d="M288.7358,120.6179c-5.6217-.998-10.4781-3.6151-12.9012-11.3798l-2.6286-11.4393c9.4372,1.7809,17.204,4.8613,20.9079,11.1026-1.5963,1.036-2.7297,2.206-3.2587,3.5509-3.0825-3.4102-7.195-6.6855-11.6593-9.9147,4.805,4.1774,8.7231,8.0531,10.5715,11.2244-.8691,2.0719-1.1552,4.3807-1.0317,6.8559Z"/>
    <path class="st0" d="M307.0248,106.3742c-6.6322,5.828-12.615,13.4402-15.5641,26.0872h3.0876l.3781-4.2218c9.1027.5715,14.3221-8.9107,14.3881-9.2269-.1374.2161-.1697.2585-.092.1107.9107-1.7334,1.5448-3.5986,1.875-5.5287.6295-3.6793,1.4568-9.4299,1.4094-12.6396-5.2665,1.3975-10.2963,3.3717-14.934,6.3013-5.3815,3.1949-10.1552,11.3739-6.1122,17.7065,2.6342-6.5931,9.0401-12.6639,15.5641-18.5887Z"/>
  </g>
</svg>