<?xml version="1.0" encoding="UTF-8"?>
<svg id="Layer_1" xmlns="http://www.w3.org/2000/svg" version="1.1" viewBox="0 0 398.7642 178.228">
  <!-- Generator: Adobe Illustrator 29.5.1, SVG Export Plug-In . SVG Version: 2.1.0 Build 141)  -->
  <defs>
    <style>
      .st0 {
        fill: #e76f51;
      }

      .st1 {
        fill: #264653;
      }

      .st2 {
        display: none;
      }
    </style>
  </defs>
  <g>
    <path class="st1" d="M8.2681,150.9858v-75.2598h14.9458v62.0098h33.4961v13.25H8.2681Z"/>
    <path class="st1" d="M103.9858,99.2578h13.7798v51.728h-13.144v-6.2539h-.3179c-3.604,4.7354-8.7632,7.1021-15.4761,7.1021-7.208,0-13.1274-2.4546-17.7549-7.3672-4.6294-4.9106-6.9434-11.3237-6.9434-19.2388,0-7.7729,2.314-14.186,6.9434-19.2393,4.6274-5.0513,10.4409-7.5791,17.437-7.5791,6.4292,0,11.4824,2.2261,15.1577,6.6782h.3184v-5.8301ZM91.3716,139.4316c3.6738,0,6.7842-1.3066,9.3281-3.9219,2.5439-2.6133,3.8159-6.0054,3.8159-10.1758s-1.2373-7.6323-3.71-10.3882c-2.4746-2.7559-5.5835-4.1338-9.3281-4.1338-3.8159,0-6.9961,1.3247-9.54,3.9746-2.5439,2.6504-3.8159,6.1665-3.8159,10.5474,0,4.1704,1.2354,7.5625,3.71,10.1758,2.4727,2.6152,5.6528,3.9219,9.54,3.9219Z"/>
    <path class="st1" d="M161.9668,98.4097c12.5776,0,18.8677,7.2793,18.8677,21.8359v30.7402h-13.8857v-27.2422c0-4.7334-.813-8.0723-2.438-10.0166-1.626-1.9429-4.1338-2.915-7.5254-2.915-3.6045,0-6.4668,1.2188-8.5864,3.6567-2.1201,2.438-3.1802,5.9194-3.1802,10.4409v26.0762h-13.8857v-51.728h13.8857v6.6782h.2124c4.2397-5.0171,9.7515-7.5264,16.5356-7.5264Z"/>
    <path class="st1" d="M231.5015,72.9697h13.8857v78.0161h-13.25v-6.2539h-.2119c-3.7461,4.7354-9.0459,7.1021-15.8994,7.1021-7.208,0-13.1445-2.4546-17.8086-7.3672-4.6641-4.9106-6.9961-11.3237-6.9961-19.2388,0-7.7729,2.3145-14.186,6.9434-19.2393,4.627-5.0513,10.4404-7.5791,17.4365-7.5791,6.5723,0,11.7666,2.2261,15.582,6.6782h.3184v-32.1182ZM209.0298,135.5098c2.4727,2.6152,5.6523,3.9219,9.54,3.9219,3.8848,0,7.1367-1.3066,9.752-3.9219,2.6133-2.6133,3.9219-6.0054,3.9219-10.1758s-1.29-7.6323-3.8691-10.3882c-2.5801-2.7559-5.8486-4.1338-9.8047-4.1338-3.8164,0-6.9795,1.3247-9.4873,3.9746-2.5098,2.6504-3.7627,6.1665-3.7627,10.5474,0,4.1704,1.2354,7.5625,3.71,10.1758Z"/>
    <path class="st1" d="M373.6431,98.4097c12.5781,0,18.8682,7.2793,18.8682,21.8359v30.7402h-13.8857v-27.2422c0-4.7334-.8135-8.0723-2.4385-10.0166-1.626-1.9429-4.1338-2.915-7.5254-2.915-3.6045,0-6.4668,1.2188-8.5869,3.6567-2.1191,2.438-3.1797,5.9194-3.1797,10.4409v26.0762h-13.8857v-51.728h13.8857v6.6782h.2119c4.2402-5.0171,9.752-7.5264,16.5361-7.5264Z"/>
  </g>
  <g>
    <path class="st1" d="M64.1089,86.1997c-10.2002,0-18.7847-3.2002-25.75-9.6001-6.9673-6.3999-10.4502-15.2002-10.4502-26.3999,0-10.5332,3.2158-19.2656,9.6499-26.2002,6.4331-6.9326,15.2832-10.3999,26.5503-10.3999,5.1997,0,10.2827,1.1343,15.25,3.3999,4.9653,2.2671,9.3154,5.667,13.0498,10.2002l-10.2998,8.7998c-5.1343-6-11.1343-9-18-9-6.2671,0-11.4175,2.1172-15.4502,6.3501-4.0342,4.2344-6.0498,9.8501-6.0498,16.8501,0,6.5996,2,12.0342,6,16.2998,4,4.2671,9.1655,6.3999,15.5,6.3999,7.1328,0,13.1328-3,18-9l10.2998,8.8999c-7.1997,8.9346-16.6343,13.4004-28.2998,13.4004Z"/>
    <path class="st1" d="M128.9082,35.8994c12,0,18,6.7671,18,20.3003v29.2998h-13.0996v-26c0-4.333-.7847-7.3999-2.3501-9.2002-1.5674-1.7998-3.9502-2.6997-7.1499-2.6997-3.6001,0-6.4175,1.1172-8.4502,3.3501-2.0342,2.2344-3.0498,5.4844-3.0498,9.75v24.7998h-13.1001V11.8994h13.1001v30.7002h.1997c4-4.4658,9.3003-6.7002,15.8999-6.7002Z"/>
    <path class="st1" d="M202.4067,60.5996c0,2.6001-.0996,4.167-.2998,4.6997h-34.2998c.7998,2.9346,2.2998,5.2344,4.5,6.9004,2.2002,1.667,4.8652,2.5,8,2.5,4.7324.0669,8.6328-1.7656,11.7002-5.5l8.5,7.8999c-4.8672,6.1343-11.9004,9.1997-21.1006,9.1997-7.2666,0-13.2666-2.3325-17.9995-7-4.7344-4.6655-7.1001-10.7656-7.1001-18.2998,0-7.333,2.2827-13.3501,6.8501-18.0498,4.5654-4.7002,10.3501-7.0503,17.3501-7.0503,7.0654,0,12.8154,2.3174,17.25,6.9502,4.4326,4.6343,6.6494,10.5498,6.6494,17.75ZM178.9067,47.3994c-2.7344,0-5.0674.7344-7,2.2002-1.9346,1.4673-3.2666,3.5669-4,6.2998h21.5c-1.4668-5.6655-4.9668-8.5-10.5-8.5Z"/>
    <path class="st1" d="M211.5073,85.4995v-38h-5.0996v-10.7998h5.0996v-8.4004c0-5.6655,1.333-9.9653,4-12.8999,2.666-2.9326,6.4658-4.3999,11.4004-4.3999,4.8652,0,9.0654,1.2002,12.6006,3.6001l-2.6006,10.1997c-2.7998-1.3999-5.2344-2.0996-7.2998-2.0996-3.335,0-5,2.167-5,6.5v7.5h10.8994v10.7998h-10.8994v38h-13.1006Z"/>
  </g>
  <path class="st1" d="M294.6899,74.531c-21.8027,0-39.4773,17.6746-39.4773,39.4774s17.6746,39.4773,39.4773,39.4773,39.4774-17.6746,39.4774-39.4773-17.6746-39.4774-39.4774-39.4774ZM294.6899,143.7409c-16.4208,0-29.7325-13.3117-29.7325-29.7325s13.3117-29.7326,29.7325-29.7326,29.7326,13.3118,29.7326,29.7326-13.3118,29.7325-29.7326,29.7325Z"/>
  <g>
    <path class="st1" d="M373.1652,21.9645c-2.7347-2.4648-6.9498-2.246-9.4146.4887l-40.7831,48.9327c-2.4648,2.7347-3.63,4.8014-.8953,7.2662s4.444,1.9417,6.9088-.793l44.6728-46.4801c2.4648-2.7347,2.246-6.9497-.4887-9.4146ZM365.5028,30.4735c-1.6448-1.4824-1.7763-4.0176-.2939-5.6623s4.0175-1.7764,5.6623-.2939,1.7764,4.0176.2939,5.6623-4.0176,1.7764-5.6623.2939Z"/>
    <rect class="st1" x="320.0902" y="73.9838" width="4.107" height="10.1698" transform="translate(135.7883 -195.3399) rotate(42.0285)"/>
  </g>
  <path class="st1" d="M319.3375,112.1756c.0871.8388.133,1.6898.133,2.5516,0,13.4954-10.9402,24.4356-24.4356,24.4356-6.4204,0-12.2591-2.4797-16.62-6.5291,4.3267,5.0269,10.7311,8.2143,17.8839,8.2143,13.0301,0,23.593-10.563,23.593-23.593,0-1.7446-.195-3.4427-.5543-5.0794Z"/>
  <g class="st2">
    <path class="st0" d="M290.505,97.6095c-.0995-.1799-.4794-.434-.6836-.4563-.6152-.0672-5.1235,1.1227-5.6254,1.4845-.1667.1202-.3718.5288-.3696.7341.0251,2.1783,1.2483,6.5358,2.199,8.5195.9932,2.0723,3.2103,1.7838,3.564,2.7322.5571,1.4925,1.896,6.8292,1.896,6.8292,0,0-.5269.1373-.438.4835,1.8382,7.1693,1.9731,7.4887,2.6106,9.9114.0319.121.227.3158.3993.3027.1765-.0135,1.5866-.3886,1.748-.4613.1732-.0779.23-.3392.1979-.4603-.6408-2.4217-.6811-2.766-2.6193-9.9088-.0937-.3452-.6196-.2047-.6196-.2047,0,0-1.4685-5.3022-1.7205-6.8754-.16-.9996,1.9107-1.8424,1.7522-4.135-.1518-2.1944-1.2384-6.5879-2.2909-8.4952ZM289.3476,98.7666c-.0326-.124.0497-.2529.1844-.2885.1346-.0354.2703.036.3029.1599l1.4191,5.3779c.0326.1238-.0499.253-.1846.2884-.1346.0356-.27-.0359-.3027-.1597l-1.4191-5.378ZM287.8705,99.1564c-.0324-.124.0501-.253.1847-.2886.1346-.0356.2701.0361.3027.1599l1.4192,5.3778c.0328.1239-.0499.2531-.1846.2885-.1345.0355-.2701-.0358-.3027-.1598l-1.4192-5.3779ZM286.3938,99.5461c-.0327-.1239.0498-.2529.1845-.2885.1346-.0356.2701.0359.3027.1598l1.4192,5.378c.0326.1238-.0499.253-.1845.2885-.1346.0356-.2702-.0359-.3028-.1597l-1.4191-5.378ZM286.6389,105.4736c-.1347.0355-.2703-.0362-.3028-.1598l-1.4193-5.3782c-.0325-.1238.0499-.2527.1847-.2884.1345-.0354.27.036.3027.1598l1.4192,5.378c.0327.1239-.0501.253-.1846.2885ZM294.7932,127.3967c-.2772.073-.5614-.0924-.6347-.3699-.0731-.2773.0923-.5615.3697-.6346.2773-.0731.5615.0925.6346.3698.0732.2772-.0922.5614-.3696.6347Z"/>
    <path class="st0" d="M307.3078,108.2428c.3252-.1813.3994-.7337.5729-1.2449.3773-1.1124,1.3749-4.4149,1.4405-4.7591l-.0725-.0246c-.1576.313-1.3761,3.5405-1.7538,4.6527h0c-.02.055-.1178.0717-.2193.0372-.1015-.0345-.1688-.1071-.1511-.163h0c.3771-1.1124,1.375-4.4148,1.4406-4.759l-.0724-.0246c-.1575.313-1.3761,3.5406-1.7536,4.6528h0c-.02.055-.1178.0717-.2192.0373-.1017-.0345-.1691-.1073-.1514-.163h0c.3773-1.1124,1.3751-4.4148,1.4405-4.7591l-.0723-.0245c-.1576.313-1.3761,3.5405-1.7538,4.6528h0c-.0199.0551-.1175.0718-.2192.0373-.1015-.0345-.169-.1073-.1513-.163h0c.3773-1.1123,1.3749-4.4148,1.4405-4.7591l-.0722-.0244c-.1578.3129-1.3764,3.5404-1.7541,4.6527-.1736.5111-.4509.9946-.3032,1.3364.2647.6125.6349.9457.4256,1.562-3.0555,9.0029-4.3412,10.2118-4.8331,11.6613l-.0158.0465c-.152.4477.2278.9814.8404,1.1894.0021.0007.0067.0022.0088.0029.6126.2079,1.2388.0157,1.3908-.432l.0158-.0466c.492-1.4494.2078-3.1911,3.2633-12.1941.2092-.6162.7057-.6553,1.2885-.9801Z"/>
    <path class="st0" d="M286.7826,111.8606h0c-.1502-.2176-.2838-.4138-.3963-.5825-1.0679-1.6006-2.9853-4.811-4.1395-6.4893-.11-.1603-.2756-.2339-.511-.1399-.308.1228-.381.3792-.3346.5285.5874,1.8842,2.9838,6.2772,3.5225,6.4187.3073.081.5705.086.7356.1784.1506.0844.3671.3077.5152.4915h0c3.2552,5.1042,3.4735,6.3902,4.1235,7.3658l.0233.035c.2246.3373.7856.3583,1.2471.0508l.0066-.0044c.4615-.3075.658-.8333.4334-1.1705l-.0234-.0351c-.6499-.9754-1.7458-1.6769-5.2023-6.647Z"/>
    <path class="st0" d="M295.2081,91.3089c-1.6437,0-2.9761,1.7016-2.9761,3.8006v.3649c0,2.8692,2.3342,4.1983,2.3342,5.9992v20.5131c0,.3599.2174.652.5774.652h.129c.3601,0,.5775-.2921.5775-.652v-20.5131c0-1.801,2.3341-3.13,2.3341-5.9992v-.3649c0-2.099-1.3323-3.8006-2.9761-3.8006ZM296.4391,95.4944c-.2976.2951-1.0722.9276-1.231,1.0565-.1588-.1289-.9336-.7614-1.231-1.0563-.1238-.1228-.2713-.3258-.2713-.5967,0-.4367.3554-.7921.7922-.7921.2744,0,.5255.1392.6717.3723l.0385.0615.0385-.0615c.146-.2331.3972-.3723.6717-.3723.4366,0,.792.3554.792.7921,0,.2709-.1476.474-.2712.5965Z"/>
    <path class="st0" d="M306.0747,97.3495c-.1178-.4411-.323-.8541-.6102-1.2273-.5435-.7065-1.3253-1.1991-2.219-1.403l.0012-.0061-.4441-.076-.001.0062c-.9105-.1048-1.8116.0998-2.5593.5854-.3949.2565-.7258.5776-.9833.9544-.2676.3915-.4439.826-.524,1.2917l-.0044.0258c-.1809,1.0566-.269,2.3162-.2622,3.7436.0055,1.1381.071,2.3857.1947,3.7082.1808,1.9317.4356,3.4663.5062,3.8731-.1679.0258-.3083.1557-.3385.3325-.0378.221.1106.4306.3314.4684l.1567.0268c-.5376,2.6056-2.6336,12.7649-2.6337,12.7659,0,0,0,0,0,.0002-.368,2.1528.4817,2.42,1.1441,2.5362.0044.0008.0088.0016.0131.0025.0044.0006.0089.0014.0133.0021.6633.1107,1.5535.1412,1.9223-2.0114v-.0002c.0002-.0009,1.4015-10.279,1.761-12.9152l.1566.0268c.221.0378.4307-.1106.4686-.3315.0302-.1766-.0589-.3459-.2087-.4261.2019-.3603.9523-1.7229,1.7652-3.4845.5565-1.2061,1.0332-2.3609,1.4169-3.4323.4811-1.344.8167-2.5612.9975-3.6177l.0045-.0263c.0792-.4655.0573-.9338-.0647-1.392ZM298.0045,124.0098c-.3773-.0647-.631-.423-.5664-.8003s.423-.631.8003-.5664c.3774.0646.6309.4228.5664.8003-.0646.3773-.4229.6308-.8003.5664ZM300.4436,109.0223l-.6198-.106c-.0457-1.0133-.2703-6.88.4431-11.0484.0025-.0141.0043-.0251.0044-.0259v-.0002c.2941-1.7125,1.4295-2.958,2.575-2.8603l-2.4028,14.0408ZM300.6879,109.0642l2.4028-14.0409c1.1128.2888,1.7695,1.841,1.4775,3.5539h0c-.0002.001-.002.0118-.0044.0261-.7134,4.1684-2.8758,9.6265-3.2559,10.5669l-.6199-.106ZM298.9509,97.5384c.0024-.0141.0042-.0251.0044-.0258v-.0002c.2604-1.5129,1.6114-2.5865,3.1959-2.6662-.0494.0162-.0985.0339-.1477.0543-.3123.1303-.6071.3404-.8764.6244-.5394.569-.9216,1.3783-1.0763,2.2795l-.0044.0259c-.4071,2.3791-.5048,5.312-.515,7.3533-.0086,1.7646.0445,3.1849.0667,3.6941l-.1989-.034c-.1085-.6132-1.1931-6.9537-.4484-11.3053ZM305.9187,98.7041c0,.0009-.002.0119-.0044.026-.7447,4.3516-3.8759,9.9707-4.1821,10.5128l-.1989-.0341c.1902-.4729.7128-1.7947,1.2912-3.4617.6693-1.9286,1.5526-4.7271,1.9597-7.1062l.0044-.0262c.1536-.9009.0622-1.7914-.2571-2.5073-.1596-.3573-.3677-.6535-.619-.8802-.0394-.0357-.08-.0686-.121-.1003,1.4678.6019,2.3849,2.0637,2.1273,3.5771h0Z"/>
    <path class="st0" d="M310.9101,116.9643c-2.1575,0-3.1522.281-3.5897.4842.0039-.9349-.0032-1.7945-.0032-2.5318,0-.6419.9239-.3234.7854-1.1552h-25.7886c-.1386.8318.7854.5132.7854,1.1552,0,.7374-.0073,1.597-.0033,2.5318-.4375-.2032-1.4322-.4842-3.5897-.4842-.338,0-.6577.378-.6577.8432s.3581.843.6577.843c1.6999,0,3.0599.8988,3.6373,1.3517.1507,4.1489.7458,8.8715,3.0049,11.1307l.1226.1155c0,.5389,4.0018.9756,8.9384.9756s8.9383-.4367,8.9383-.9756l.1201-.1155c2.2591-2.2592,2.8542-6.9818,3.0049-11.1307.5773-.4529,1.9374-1.3517,3.6373-1.3517.2996,0,.6576-.3778.6576-.843s-.3196-.8432-.6576-.8432ZM287.1243,130.9365c-3.3034-3.3033-3.0492-11.8735-3.0492-16.2163h1.5723c0,4.3428-.7728,12.1125,2.5214,16.436l-1.0445-.2197Z"/>
  </g>
  <g>
    <path class="st1" d="M306.8237,99.8217c5.9679,2.1027,4.2122,8.9451-2.8175,9.1324,0,17.1059-.687,4.1984-16.8352,9.9235v-7.7237c-4.1776-1.256-7.2726-4.7605-7.2726-8.6119,0-4.5245,4.2677-7.8069,9.5418-7.342,1.9292.1874,3.6987.8258,5.1977,1.7904.9576-1.7765,3.2129-2.873,5.8431-2.637,3.4072.3123,6.1762,2.7342,6.3427,5.4684Z"/>
    <path class="st1" d="M305.2623,122.0836c1.9917.8952,1.6308,5.2255-2.4913,5.1075-2.8036-.0694-4.3025-2.0263-7.6058-1.9917-3.2963-.0347-4.809,1.9223-7.6126,1.9917-4.129.118-4.469-4.2123-2.4982-5.1075,1.4642-.6384,1.5336.8258.7772.8258-.1873,0-.3608-.1179-.4303-.2775-.1873.7772.118,1.5822.9438,1.7557,2.3733.4649,3.3518-3.6988,6.1762-3.6988.9091,0,1.7349.3956,2.6439.4164.916-.0208,1.721-.4164,2.6509-.4164,2.8036,0,3.8029,4.1637,6.1554,3.6988.8397-.1735,1.1519-.9785.9646-1.7557-.0902.1596-.2429.2775-.4303.2775-.7564,0-.687-1.4642.7564-.8258Z"/>
    <path class="st1" d="M297.4206,128.9468c0,1.4435-1.5336,2.6301-2.2553,2.6301s-2.2484-1.1866-2.2484-2.6301c0-.7078.569-.9299.9993-.9299.5621-.0208,1.0826.3262,1.2491.34.1735-.0139.6732-.3609,1.2561-.34.4303,0,.9993.2221.9993.9299Z"/>
  </g>
  <g>
    <path class="st0" d="M306.8237,100.9511c5.9679,2.1027,4.2122,8.9451-2.8175,9.1324,0,17.1059-.687,4.1984-16.8352,9.9235v-7.7237c-4.1776-1.256-7.2726-4.7605-7.2726-8.6119,0-4.5245,4.2677-7.8069,9.5418-7.342,1.9292.1874,3.6987.8258,5.1977,1.7904.9576-1.7765,3.2129-2.873,5.8431-2.637,3.4072.3123,6.1762,2.7342,6.3427,5.4684Z"/>
    <path class="st0" d="M305.2623,123.213c1.9917.8952,1.6308,5.2255-2.4913,5.1075-2.8036-.0694-4.3025-2.0263-7.6058-1.9917-3.2963-.0347-4.809,1.9223-7.6126,1.9917-4.129.118-4.469-4.2123-2.4982-5.1075,1.4642-.6384,1.5336.8258.7772.8258-.1873,0-.3608-.1179-.4303-.2775-.1873.7772.118,1.5822.9438,1.7557,2.3733.4649,3.3518-3.6988,6.1762-3.6988.9091,0,1.7349.3956,2.6439.4164.916-.0208,1.721-.4164,2.6509-.4164,2.8036,0,3.8029,4.1637,6.1554,3.6988.8397-.1735,1.1519-.9785.9646-1.7557-.0902.1596-.2429.2775-.4303.2775-.7564,0-.687-1.4642.7564-.8258Z"/>
    <path class="st0" d="M297.4206,130.0762c0,1.4435-1.5336,2.6301-2.2553,2.6301s-2.2484-1.1866-2.2484-2.6301c0-.7078.569-.9299.9993-.9299.5621-.0208,1.0826.3262,1.2491.34.1735-.0139.6732-.3609,1.2561-.34.4303,0,.9993.2221.9993.9299Z"/>
  </g>
</svg>