<?xml version="1.0" encoding="UTF-8"?>
<svg id="Layer_1" xmlns="http://www.w3.org/2000/svg" version="1.1" viewBox="0 0 398.8 178.2">
  <!-- Generator: Adobe Illustrator 29.5.1, SVG Export Plug-In . SVG Version: 2.1.0 Build 141)  -->
  <defs>
    <style>
      .st0 {
        font-size: 106px;
      }

      .st0, .st1, .st2 {
        fill: #264653;
      }

      .st0, .st2 {
        font-family: AvertaStd-Bold, AvertaStd-Bold;
        font-weight: 700;
      }

      .st3 {
        fill: #6b8f71;
      }

      .st2 {
        font-size: 100px;
        letter-spacing: 0em;
      }
    </style>
  </defs>
  <text class="st0" transform="translate(0 151)"><tspan x="0" y="0" xml:space="preserve">Land   n</tspan></text>
  <text class="st2" transform="translate(23 85.5)"><tspan x="0" y="0">Chef</tspan></text>
  <path class="st1" d="M294.7,74.5c-21.8,0-39.5,17.7-39.5,39.5s17.7,39.5,39.5,39.5,39.5-17.7,39.5-39.5-17.7-39.5-39.5-39.5ZM294.7,143.7c-16.4,0-29.7-13.3-29.7-29.7s13.3-29.7,29.7-29.7,29.7,13.3,29.7,29.7-13.3,29.7-29.7,29.7Z"/>
  <g>
    <path class="st1" d="M373.2,22c-2.7-2.5-6.9-2.2-9.4.5l-40.8,48.9c-2.5,2.7-3.6,4.8-.9,7.3s4.4,1.9,6.9-.8l44.7-46.5c2.5-2.7,2.2-6.9-.5-9.4ZM365.5,30.5c-1.6-1.5-1.8-4-.3-5.7s4-1.8,5.7-.3,1.8,4,.3,5.7-4,1.8-5.7.3Z"/>
    <rect class="st1" x="320.1" y="74" width="4.1" height="10.2" transform="translate(135.8 -195.3) rotate(42)"/>
  </g>
  <path class="st1" d="M319.3,112.2c0,.8.1,1.7.1,2.6,0,13.5-10.9,24.4-24.4,24.4s-12.3-2.5-16.6-6.5c4.3,5,10.7,8.2,17.9,8.2,13,0,23.6-10.6,23.6-23.6s-.2-3.4-.6-5.1Z"/>
  <g>
    <path class="st3" d="M288.7,120.6c-5.6-1-10.5-3.6-12.9-11.4l-2.6-11.4c9.4,1.8,17.2,4.9,20.9,11.1-1.6,1-2.7,2.2-3.3,3.6-3.1-3.4-7.2-6.7-11.7-9.9,4.8,4.2,8.7,8.1,10.6,11.2-.9,2.1-1.2,4.4-1,6.9Z"/>
    <path class="st3" d="M307,106.4c-6.6,5.8-12.6,13.4-15.6,26.1h3.1l.4-4.2c9.1.6,14.3-8.9,14.4-9.2-.1.2-.2.3,0,.1.9-1.7,1.5-3.6,1.9-5.5.6-3.7,1.5-9.4,1.4-12.6-5.3,1.4-10.3,3.4-14.9,6.3-5.4,3.2-10.2,11.4-6.1,17.7,2.6-6.6,9-12.7,15.6-18.6Z"/>
  </g>
</svg>